<svg width="530" height="766" viewBox="0 0 530 766" fill="none" xmlns="http://www.w3.org/2000/svg">
<g clip-path="url(#clip0_1_1120)">
<rect x="0.455811" width="529.544" height="766" rx="32" fill="#3A67EC"/>
<rect x="0.455811" width="654" height="900" fill="url(#paint0_linear_1_1120)"/>
<path fill-rule="evenodd" clip-rule="evenodd" d="M490.659 548.434H455.765L451.117 482.305H495.584L490.659 548.434Z" fill="#D5D7D8"/>
<path fill-rule="evenodd" clip-rule="evenodd" d="M463.905 467.794C463.905 467.794 469.438 441.195 458.369 430.44C447.3 419.684 440.988 415.835 440.988 415.835C440.988 415.835 420.42 447.81 463.905 467.794Z" fill="#ECEDF1"/>
<path fill-rule="evenodd" clip-rule="evenodd" d="M466.435 393.595C466.435 393.595 471.968 366.995 460.899 356.237C449.83 345.478 443.518 341.632 443.518 341.632C443.518 341.632 422.95 373.608 466.435 393.595Z" fill="#ECEDF1"/>
<path fill-rule="evenodd" clip-rule="evenodd" d="M470.546 350.345C470.546 350.345 475.396 333.024 466.223 323.185C457.049 313.347 447.142 310.887 447.142 310.887C447.142 310.887 445.877 338.15 470.546 350.345Z" fill="#D5D7D8"/>
<path fill-rule="evenodd" clip-rule="evenodd" d="M479.401 453.806C479.401 453.806 477.186 415.218 503.596 399.077C503.596 399.077 503.767 444.578 479.401 453.806Z" fill="#ECEDF1"/>
<path fill-rule="evenodd" clip-rule="evenodd" d="M473.101 430.539C473.101 430.539 469.915 403.69 449.743 395.61C449.743 395.604 455.183 426.988 473.101 430.539Z" fill="#D5D7D8"/>
<path fill-rule="evenodd" clip-rule="evenodd" d="M484.303 385.089C484.303 385.089 468.331 357.57 500.744 337.123C500.744 337.123 513.188 371.545 484.303 385.089Z" fill="#D5D7D8"/>
<path d="M465.29 334.97C465.29 334.97 474.235 351.984 474.235 378.017V416.771" stroke="#D5D7D8" stroke-width="2" stroke-linecap="round"/>
<path d="M457.159 373.098C457.159 373.098 464.643 386.113 466.435 393.595C468.228 401.077 469.764 425.057 469.764 449.347V502.232" stroke="#D5D7D8" stroke-width="2" stroke-linecap="round"/>
<path d="M454.629 447.914C454.629 447.914 462.998 460.929 463.905 467.794C464.813 474.66 463.905 502.999 463.905 502.999" stroke="#D5D7D8" stroke-width="2" stroke-linecap="round"/>
<path d="M466.04 420.839C466.04 420.839 471.07 426.785 473.101 430.54C475.133 434.295 476.793 447.751 476.793 453.812V499.009" stroke="#D5D7D8" stroke-width="2" stroke-linecap="round"/>
<path d="M490.628 364.333C490.628 364.333 484.303 376.324 484.303 385.089V498.996" stroke="#D5D7D8" stroke-width="2" stroke-linecap="round"/>
<path d="M260.599 192.43H259.988V209.341H260.599V192.43Z" fill="#D5D7D8"/>
<path d="M287.357 209.341H286.745V226.251H287.357V209.341Z" fill="#D5D7D8"/>
<path d="M269.122 226.251H268.511V243.162H269.122V226.251Z" fill="#D5D7D8"/>
<path d="M314.021 209.043H235.696V209.638H314.021V209.043Z" fill="#D5D7D8"/>
<path d="M305.713 225.954H227.388V226.548H305.713V225.954Z" fill="#D5D7D8"/>
<path d="M326.86 242.865H248.535V243.46H326.86V242.865Z" fill="#D5D7D8"/>
<path d="M311.488 341.235H310.876V358.146H311.488V341.235Z" fill="#D5D7D8"/>
<path d="M338.242 358.146H337.631V375.057H338.242V358.146Z" fill="#D5D7D8"/>
<path d="M320.011 375.057H319.399V391.968H320.011V375.057Z" fill="#D5D7D8"/>
<path d="M364.909 357.849H286.584V358.443H364.909V357.849Z" fill="#D5D7D8"/>
<path d="M356.602 374.76H278.277V375.354H356.602V374.76Z" fill="#D5D7D8"/>
<path d="M377.745 391.67H299.42V392.264H377.745V391.67Z" fill="#D5D7D8"/>
<path d="M96.761 262.589H96.1494V279.5H96.761V262.589Z" fill="#D5D7D8"/>
<path d="M123.518 279.5H122.907V296.411H123.518V279.5Z" fill="#D5D7D8"/>
<path d="M105.284 296.411H104.673V313.322H105.284V296.411Z" fill="#D5D7D8"/>
<path d="M150.183 279.203H71.8582V279.797H150.183V279.203Z" fill="#D5D7D8"/>
<path d="M141.878 296.114H63.553V296.708H141.878V296.114Z" fill="#D5D7D8"/>
<path d="M163.022 313.024H84.697V313.619H163.022V313.024Z" fill="#D5D7D8"/>
<path fill-rule="evenodd" clip-rule="evenodd" d="M450.432 217.449V268.982H365.382V217.449H450.432Z" fill="#ECEDF1"/>
<path d="M457.774 275.156H358.041V211.271H457.774V275.156ZM358.347 274.843H457.484V211.587H358.347V274.843Z" fill="#DFE1EE"/>
<path fill-rule="evenodd" clip-rule="evenodd" d="M405.108 556.895C405.108 556.895 453.364 556.56 449.743 564.027C446.122 571.493 345.581 573.396 321.636 573.775C297.692 574.153 153.55 566.411 134.028 564.966C114.506 563.52 81.0889 553.387 150.917 552.999C192.265 552.764 405.108 556.895 405.108 556.895Z" fill="#DCDCDD"/>
<path d="M88.0508 290.24C88.0508 290.24 259.176 291.942 244.128 333.368C229.081 374.794 144.926 385.315 197.16 407.148" stroke="#1F2055" stroke-width="2" stroke-linecap="round" stroke-dasharray="8 8"/>
<path fill-rule="evenodd" clip-rule="evenodd" d="M134.993 404.663C117.458 401.289 109.127 388.631 109.127 388.631C109.127 388.631 118.14 427.785 125.443 454.284C129.567 469.268 128.582 496.712 126.95 517.738C126.083 517.845 125.435 518.563 125.437 519.412V522.504C125.438 523.15 125.821 523.738 126.422 524.015L142.133 525.915C142.655 525.738 143.059 525.328 143.217 524.813L144.128 521.834C144.314 521.227 144.132 520.569 143.658 520.135C149.104 499.741 160.199 459.37 160.843 443.607L161.712 423.06C161.712 423.06 152.526 408.039 134.993 404.663Z" fill="#2F3E8B"/>
<path fill-rule="evenodd" clip-rule="evenodd" d="M192.104 530.971C193.626 530.89 193.884 527.445 193.884 525.965C193.884 524.484 192.104 524.002 192.104 524.002C192.104 524.002 192.973 495.964 192.104 484.489C191.235 473.013 161.725 423.06 161.725 423.06C161.725 423.06 176.48 470.313 181.17 487.868C183.944 498.261 185.998 512.142 186.941 523.981C186.476 524.016 186.044 524.231 185.742 524.577C185.44 524.923 185.292 525.372 185.331 525.824L185.653 529.507C185.73 530.392 186.491 531.071 187.404 531.072L192.052 531.037C191.965 530.99 191.981 530.99 192.104 530.971Z" fill="#2F3E8B"/>
<path fill-rule="evenodd" clip-rule="evenodd" d="M202.491 529.629L202.996 526.475C203.118 525.728 202.718 524.992 202.014 524.669C204.078 503.887 207.145 463.697 204.084 448.545C200.089 428.799 193.842 384.579 193.842 384.579L109.127 388.647C109.127 388.647 117.458 401.305 134.993 404.678C152.529 408.052 161.725 423.076 161.725 423.076C161.725 423.076 191.238 473.032 192.104 484.51C192.97 495.989 192.104 524.024 192.104 524.024C192.104 524.024 193.884 524.509 193.884 525.986C193.884 527.464 193.626 530.906 192.104 530.993C191.981 530.993 191.965 531.025 192.039 531.062L201.354 530.993C201.963 530.777 202.4 530.253 202.491 529.629Z" fill="#1F2055"/>
<path fill-rule="evenodd" clip-rule="evenodd" d="M125.92 529.529L140.726 531.942V531.929C140.832 531.112 141.344 528.994 142.145 525.918L126.435 524.018C126.258 525.936 126.081 527.783 125.92 529.529Z" fill="#F37878"/>
<path fill-rule="evenodd" clip-rule="evenodd" d="M192.039 531.04L187.392 531.075C187.517 533.841 187.565 536.395 187.53 538.651C188.496 538.61 189.831 538.56 191.373 538.501L192.039 531.04Z" fill="#F37878"/>
<path fill-rule="evenodd" clip-rule="evenodd" d="M200.611 536.983C200.762 536.044 201.026 533.948 201.355 530.972L192.04 531.041L191.373 538.501C194.129 538.395 197.518 538.273 200.521 538.188C200.515 537.785 200.545 537.382 200.611 536.983Z" fill="#F15859"/>
<path d="M188.46 524.009L200.524 524.578" stroke="#0E142D" stroke-width="2" stroke-linecap="round"/>
<path d="M194.492 522.804C194.492 522.804 195.158 482.298 191.373 465.422C187.588 448.545 177.806 408.039 177.806 408.039" stroke="#0E142D" stroke-width="2" stroke-linecap="round"/>
<path d="M127.613 517.91L142.139 519.85" stroke="#CAE2F2" stroke-width="2" stroke-linecap="round"/>
<path d="M134.877 516.223C134.877 516.223 145.58 471.499 145.58 446.352C145.58 421.205 138.949 405.671 138.949 405.671" stroke="#CAE2F2" stroke-width="2" stroke-linecap="round"/>
<path fill-rule="evenodd" clip-rule="evenodd" d="M202.867 313.816C209.305 314.385 225.138 320.944 218.864 298.257C211.635 284.053 199.69 269.019 196.359 265.355L188.904 270.675C194.283 281.89 200.701 300.003 200.701 300.003C200.701 300.003 190.285 291.901 182.605 284.685C174.925 277.469 152.008 270.888 152.008 270.888C152.008 270.888 129.09 266.272 116.424 281.803C115.224 283.273 114.171 285.42 113.292 288.102C113.292 288.102 135 297.49 144.894 324.665C154.789 351.84 160.692 382.892 193.848 384.579L188.277 328.085L185.508 299.518C185.508 299.518 196.446 313.23 202.867 313.816Z" fill="white"/>
<path fill-rule="evenodd" clip-rule="evenodd" d="M224.001 319.984C225.739 314.682 223.119 306.606 218.851 298.244C225.125 320.932 209.279 314.373 202.854 313.803C196.429 313.234 185.495 299.518 185.495 299.518L188.263 328.085C188.263 328.085 219.315 334.288 224.001 319.984Z" fill="#C9E2F4"/>
<path fill-rule="evenodd" clip-rule="evenodd" d="M144.888 324.665C134.993 297.493 113.286 288.102 113.286 288.102C104.714 313.787 109.127 388.631 109.127 388.631C109.127 388.631 119.369 396.564 142.818 398.933C166.267 401.302 193.858 384.585 193.858 384.585C160.685 382.892 154.782 351.84 144.888 324.665Z" fill="#C9E2F4"/>
<path d="M0.455811 534.683C0.455811 534.683 16.0797 534.549 44.5914 497.391C73.1031 460.234 99.5774 424.907 161.725 415.804" stroke="#222154" stroke-width="19"/>
<path d="M172.511 449.619C182.921 448.48 189.733 433.489 187.725 416.136C185.717 398.783 175.651 385.639 165.241 386.778C154.831 387.917 148.019 402.908 150.027 420.261C152.035 437.614 162.101 450.758 172.511 449.619Z" fill="#FDB714"/>
<path fill-rule="evenodd" clip-rule="evenodd" d="M195.751 421.915C199.41 422.491 205.539 429.253 210.85 437.02L203.267 371.514L170.326 376.568C166.042 377.028 162.453 380.595 159.894 386.203C159.894 386.203 187.417 420.598 195.751 421.915Z" fill="#F7B219"/>
<path fill-rule="evenodd" clip-rule="evenodd" d="M156.244 419.787C158.877 442.518 169.441 460.024 179.857 458.885C180.082 458.86 180.307 458.822 180.529 458.781L212.794 453.831L210.863 437.02C205.552 429.253 199.423 422.491 195.764 421.915C187.43 420.597 159.907 386.203 159.907 386.203C156.241 394.217 154.696 406.415 156.244 419.787Z" fill="#E0A126"/>
<path d="M212.785 453.832C223.195 452.693 229.502 433.343 226.873 410.613C224.243 387.882 213.672 370.379 203.262 371.518C192.852 372.658 186.545 392.008 189.174 414.738C191.804 437.468 202.375 454.971 212.785 453.832Z" fill="#FDB714"/>
<path d="M207.96 404.279C209.497 404.111 210.487 401.769 210.173 399.049C209.858 396.328 208.357 394.259 206.82 394.427C205.283 394.596 204.293 396.937 204.607 399.658C204.922 402.378 206.423 404.447 207.96 404.279Z" fill="#E0A126"/>
<path d="M211.997 434.281C213.534 434.113 214.524 431.772 214.21 429.051C213.895 426.331 212.394 424.262 210.857 424.43C209.32 424.598 208.329 426.94 208.644 429.66C208.959 432.381 210.46 434.45 211.997 434.281Z" fill="#E0A126"/>
<path fill-rule="evenodd" clip-rule="evenodd" d="M193.842 375.426C193.842 375.426 186.889 388.018 186.171 397.196C185.454 406.375 189.091 383.524 186.171 382.385C183.252 381.246 166.544 377.069 193.842 375.426Z" fill="#FFEE99"/>
<path fill-rule="evenodd" clip-rule="evenodd" d="M243.887 392.412C243.398 391.016 242.197 390.086 240.935 390.249L207.077 394.552C205.967 394.693 205.265 396.289 205.51 398.116C205.575 398.605 205.709 399.083 205.909 399.537C212.359 398.933 240.829 396.117 243.887 392.412Z" fill="#2F3E8B"/>
<path fill-rule="evenodd" clip-rule="evenodd" d="M248.11 424.428C248.204 423.984 248.22 423.528 248.158 423.079C247.914 421.252 246.504 419.922 245.01 420.112L211.146 424.415C210.338 424.519 209.752 425.385 209.582 426.549C215.929 426.65 240.044 426.859 248.11 424.428Z" fill="#2F3E8B"/>
<path fill-rule="evenodd" clip-rule="evenodd" d="M207.969 401.171L241.833 396.868C243.327 396.677 244.338 395.04 244.087 393.213C244.049 392.94 243.983 392.672 243.89 392.412C240.823 396.117 212.346 398.943 205.909 399.537C206.385 400.598 207.174 401.271 207.969 401.171Z" fill="#1F2055"/>
<path fill-rule="evenodd" clip-rule="evenodd" d="M209.576 427.98C209.823 429.807 210.924 431.175 212.035 431.034L245.902 426.731C247.01 426.59 247.834 425.651 248.11 424.428C240.044 426.859 215.923 426.65 209.582 426.549C209.512 427.024 209.51 427.505 209.576 427.98Z" fill="#1F2055"/>
<path fill-rule="evenodd" clip-rule="evenodd" d="M184.9 250.744C184.64 254.709 187.765 268.804 196.359 265.343C191.064 259.519 189.761 251.336 189.674 248.889C189.587 246.441 184.466 237.579 181.991 237.554C181.75 237.559 181.53 237.689 181.415 237.895C182.544 240.755 185.103 247.643 184.9 250.744Z" fill="#F37878"/>
<path fill-rule="evenodd" clip-rule="evenodd" d="M179.605 413.863C183.947 420.191 192.822 420.867 192.822 420.867C193.288 417.64 185.843 407.386 185.454 406.375C185.064 405.364 191.18 406.375 192.484 405.486C193.787 404.597 191.312 403.02 185.257 401.058C180.989 399.675 178.82 398.323 173.631 392.412L166.373 399.434C166.373 399.434 175.266 407.533 179.605 413.863Z" fill="#F37878"/>
<path fill-rule="evenodd" clip-rule="evenodd" d="M192.822 420.867C192.822 420.867 183.947 420.191 179.605 413.863C175.263 407.536 166.373 399.434 166.373 399.434C170.67 403.684 178.002 414.899 179.918 416.817C182.132 419.03 192.352 424.093 192.822 420.867Z" fill="#F15859"/>
<path fill-rule="evenodd" clip-rule="evenodd" d="M182.122 251.167C181.157 251.674 179.084 257.241 184.292 262.811C185.557 264.163 187.189 267.054 188.901 270.656L196.356 265.336C187.762 268.797 184.636 254.697 184.897 250.738C185.1 247.637 182.541 240.749 181.411 237.889C179.988 240.005 182.122 251.167 182.122 251.167Z" fill="#F15859"/>
<path fill-rule="evenodd" clip-rule="evenodd" d="M173.631 392.412C171.455 389.94 168.752 386.666 165.14 382.26C152.909 367.324 141.576 331.503 138.19 308.843C134.803 286.184 121.13 279.603 121.13 279.603C113.836 280.786 104 290.268 105.909 325.372C107.817 360.477 160.975 396.057 164.622 398.02C165.267 398.414 165.856 398.89 166.373 399.434L173.631 392.412Z" fill="white"/>
<path fill-rule="evenodd" clip-rule="evenodd" d="M163.202 240.239C159.018 238.9 155.259 242.811 155.259 242.811C155.253 241.689 155.332 240.568 155.497 239.457C155.342 239.669 155.259 239.795 155.259 239.795C155.259 239.795 153.047 234.415 150.636 237.642C148.226 240.868 151.872 244.858 151.872 244.858C152.133 248.087 144.843 265.934 143.217 269.73C141.592 273.526 144.907 275.988 150.701 280.301C151.498 280.907 152.414 281.351 153.392 281.605C153.437 281.605 161.062 280.639 157.341 273.992C153.62 267.345 155.822 261.925 155.822 261.925L160.27 264.857C160.27 264.857 166.637 268.149 170.178 265.624C173.718 263.099 177.259 242.564 177.259 242.564C177.091 242.195 176.937 241.841 176.757 241.494C172.91 242.314 166.489 241.29 163.202 240.239Z" fill="#F37878"/>
<path fill-rule="evenodd" clip-rule="evenodd" d="M157.341 273.992C161.062 280.645 153.44 281.599 153.392 281.605C158.246 282.819 162.546 278.163 161.439 275.744C160.135 272.896 160.264 264.857 160.264 264.857L155.816 261.925C155.816 261.925 153.611 267.326 157.341 273.992Z" fill="#F15859"/>
<path fill-rule="evenodd" clip-rule="evenodd" d="M155.497 239.457C155.332 240.568 155.253 241.689 155.259 242.811C155.259 242.811 159.018 238.9 163.202 240.239C166.489 241.29 172.91 242.314 176.76 241.491C167.995 223.475 157.222 237.078 155.497 239.457Z" fill="#F15859"/>
<path fill-rule="evenodd" clip-rule="evenodd" d="M185.682 221.548C181.43 220.365 177.697 222.981 177.697 222.981C177.697 222.981 173.19 213.446 166.846 220.618C160.502 227.791 159.73 224.668 155.259 224.752C150.788 224.837 148.271 225.766 148.445 229.393C148.618 233.02 138.808 234.372 142.802 240.533L143.687 241.891C140.707 235.695 145.104 239.288 146.668 235.11C148.232 230.933 154.869 236.631 157.505 233.909C160.142 231.186 162.942 234.732 165.414 238.29C167.886 241.848 174.484 243.228 174.484 243.228C176.66 243.168 178.683 242.127 179.956 240.411C185.682 233.023 189.934 222.728 185.682 221.548Z" fill="#2F3E8B"/>
<path fill-rule="evenodd" clip-rule="evenodd" d="M165.414 238.277C162.942 234.731 160.139 231.189 157.506 233.896C154.873 236.603 148.229 230.923 146.668 235.097C145.107 239.272 140.707 235.683 143.688 241.879C147.228 247.324 149.768 251.339 148.435 256.587C148.435 256.587 153.176 246.119 152.655 245.105C152.655 245.105 149.488 241.813 150.463 239.241C151.438 236.668 154.406 238.461 155.259 239.788V242.805C155.259 242.805 157.473 237.485 160.032 237.995C161.922 238.368 168.723 243.49 174.485 243.209C174.485 243.209 167.889 241.819 165.414 238.277Z" fill="#1F2055"/>
<path fill-rule="evenodd" clip-rule="evenodd" d="M192.236 554.535L193.716 555.515H227.388C223.609 552.717 217.622 548.555 213.631 546.95C207.792 544.584 200.592 543.542 200.521 538.188C197.518 538.282 194.128 538.404 191.373 538.501C191.373 538.501 189.371 552.636 192.236 554.535Z" fill="#1F2055"/>
<path fill-rule="evenodd" clip-rule="evenodd" d="M193.716 555.515L192.236 554.535C189.371 552.636 191.373 538.501 191.373 538.501C189.831 538.56 188.476 538.61 187.53 538.651C187.498 540.594 187.404 542.309 187.244 543.733C186.6 549.529 186.091 553.281 185.766 555.515H193.716Z" fill="#2D4087"/>
<path fill-rule="evenodd" clip-rule="evenodd" d="M229.933 557.427C229.306 556.948 228.427 556.281 227.387 555.515H185.766C185.482 557.449 185.334 558.247 185.334 558.247H229.637C229.839 558.247 230.018 558.124 230.085 557.939C230.152 557.754 230.091 557.549 229.933 557.427Z" fill="#C9E1F2"/>
<path d="M204.429 543.436L202.259 545.673" stroke="#CAE2F2" stroke-width="2" stroke-linecap="round"/>
<path d="M206.788 544.481L204.831 547.009" stroke="#CAE2F2" stroke-width="2" stroke-linecap="round"/>
<path d="M208.828 545.223L207.013 547.826" stroke="#CAE2F2" stroke-width="2" stroke-linecap="round"/>
<path fill-rule="evenodd" clip-rule="evenodd" d="M166.334 556.879C164.081 552.936 159.877 546.509 156.169 545.927C150.797 545.085 140.056 537.34 140.719 531.942L125.913 529.529C125.224 536.617 124.577 542.046 124.255 544.628C126.257 545.999 142.28 556.763 153.952 556.882C159.362 556.935 163.434 556.81 166.334 556.879Z" fill="#2F3E8B"/>
<path fill-rule="evenodd" clip-rule="evenodd" d="M147.666 558.246C156.591 560.03 163.019 560.14 166.042 560.046C166.472 560.034 166.866 559.807 167.082 559.445C167.299 559.083 167.309 558.638 167.107 558.268C166.888 557.862 166.627 557.389 166.335 556.879C163.438 556.81 159.363 556.935 153.958 556.879C142.3 556.76 126.277 545.995 124.262 544.625C124.133 545.685 124.056 546.261 124.056 546.261C124.056 546.261 134.993 555.712 147.666 558.246Z" fill="#C9E1F2"/>
<path d="M143.397 537.965L136.837 539.029" stroke="#CAE2F2" stroke-width="2" stroke-linecap="round"/>
<path d="M145.145 539.74L138.399 541.686" stroke="#CAE2F2" stroke-width="2" stroke-linecap="round"/>
<path d="M147.009 541.301L140.117 543.711" stroke="#CAE2F2" stroke-width="2" stroke-linecap="round"/>
<path fill-rule="evenodd" clip-rule="evenodd" d="M417.437 541.737L403.274 544.081L400.203 532.478L415.811 529.918C416.062 531.833 417.189 540 417.437 541.737Z" fill="#F15859"/>
<path fill-rule="evenodd" clip-rule="evenodd" d="M350.502 539.65C348.98 539.634 348.571 536.207 348.5 534.727C348.43 533.247 350.19 532.693 350.19 532.693C350.19 532.693 348.069 504.717 348.423 493.217C348.777 481.717 376.024 430.555 376.024 430.555C376.024 430.555 363.397 478.39 359.499 496.124C357.194 506.626 355.772 520.58 355.35 532.446C355.817 532.461 356.259 532.657 356.577 532.99C356.896 533.323 357.064 533.766 357.046 534.22L356.901 537.913C356.867 538.802 356.135 539.516 355.221 539.553L350.58 539.715C350.644 539.675 350.628 539.65 350.502 539.65Z" fill="#1F2055"/>
<path fill-rule="evenodd" clip-rule="evenodd" d="M340.064 538.749L339.42 535.619C339.267 534.877 339.633 534.125 340.322 533.77C337.328 513.098 332.465 473.061 334.85 457.809C337.956 437.913 342.221 393.47 342.221 393.47L427.035 393.927C427.035 393.927 419.278 406.926 401.929 411.041C384.579 415.156 376.043 430.549 376.043 430.549C376.043 430.549 348.797 481.707 348.442 493.211C348.088 504.714 350.21 532.687 350.21 532.687C350.21 532.687 348.455 533.247 348.52 534.721C348.584 536.195 348.999 539.628 350.522 539.644C350.647 539.644 350.663 539.669 350.593 539.709L341.281 540.022C340.668 539.843 340.202 539.356 340.064 538.749Z" fill="#2F3E8B"/>
<path fill-rule="evenodd" clip-rule="evenodd" d="M416.957 531.022C416.915 530.159 416.686 530.127 415.843 530.055C413.268 509.12 410.22 475.358 413.667 460.215C419.767 433.435 427.035 393.927 427.035 393.927L374.485 393.724L376.027 430.549L377.814 451.04C379.185 466.759 393.943 512.707 400.29 532.841C399.844 533.27 399.696 533.913 399.91 534.487L400.77 537.212C400.77 537.212 401.507 539.206 402.022 539.359L416.773 536.94C417.346 536.627 417.234 534.834 417.205 534.174L416.957 531.022Z" fill="#1F2055"/>
<path fill-rule="evenodd" clip-rule="evenodd" d="M350.573 539.715L355.215 539.553C355.215 542.322 355.283 544.873 355.418 547.126H351.555L350.573 539.715Z" fill="#F15859"/>
<path fill-rule="evenodd" clip-rule="evenodd" d="M342.275 546.012C342.082 545.073 341.725 542.998 341.261 540.038L350.573 539.725L351.571 547.151C348.816 547.151 345.423 547.182 342.42 547.213C342.406 546.81 342.358 546.408 342.275 546.012Z" fill="#F37878"/>
<path d="M353.834 532.54L341.805 533.617" stroke="#CAE2F2" stroke-width="2" stroke-linecap="round"/>
<path d="M347.754 531.592C347.754 531.592 345.275 491.152 348.298 474.131C351.32 457.111 359.287 416.239 359.287 416.239" stroke="#CAE2F2" stroke-width="2" stroke-linecap="round"/>
<path d="M415.032 530.193L400.905 532.693" stroke="#0E142D" stroke-width="2" stroke-linecap="round"/>
<path d="M407.906 530.033C407.906 530.033 394.319 478.265 393.196 453.14C392.072 428.014 398.001 412.205 398.001 412.205" stroke="#0E142D" stroke-width="2" stroke-linecap="round"/>
<path fill-rule="evenodd" clip-rule="evenodd" d="M428.023 279.237C434.403 269.884 396.254 262.264 397.558 253.909C398.861 245.553 382.323 249.099 382.713 240.162C382.886 236.234 381.245 233.966 378.599 232.783C377.507 232.32 376.351 232.015 375.168 231.878C353.296 226.756 351.027 239.389 351.027 239.389C349.283 241.129 346.241 243.335 345.362 245.425C342.758 251.637 347.274 253.906 349.833 257.069C352.392 260.233 354.375 266.598 348.098 269.981C338.223 275.301 353.306 279.097 345.101 284.792C336.897 290.487 346.749 300.489 346.749 300.489C346.749 300.489 414.887 304.791 425.957 297.703C437.026 290.616 428.023 279.237 428.023 279.237Z" fill="#2F3E8B"/>
<path fill-rule="evenodd" clip-rule="evenodd" d="M378.547 248.974C378.547 248.974 385.188 262.389 392.349 262.517C399.511 262.646 395.211 272.137 405.759 275.301C416.307 278.464 422.818 268.366 428.023 279.237C428.023 279.237 437.917 274.856 435.835 285.518C433.752 296.179 427.09 307.423 418.376 308.137C409.663 308.85 346.466 315.381 346.038 299.199C345.61 283.017 356.415 286.785 357.326 278.702C358.237 270.619 351.046 260.336 354.642 252.629C358.237 244.921 378.547 248.974 378.547 248.974Z" fill="#1F2055"/>
<path fill-rule="evenodd" clip-rule="evenodd" d="M388.442 331.544C397.113 303.978 418.376 293.679 418.376 293.679C428.09 318.976 427.034 393.927 427.034 393.927C427.034 393.927 417.159 402.285 393.852 405.637C370.545 408.988 342.22 393.463 342.22 393.463C375.267 390.381 379.773 359.107 388.442 331.544Z" fill="#C9E2F4"/>
<path fill-rule="evenodd" clip-rule="evenodd" d="M346.733 308.137C346.733 308.137 333.758 344.415 330.639 350.827C327.52 357.239 322.203 367.381 322.196 367.413C319.174 387.249 318.823 399.366 318.823 399.366C318.823 399.366 314.906 406.454 312.292 410.757C309.679 415.06 316.654 410.503 316.876 411.383C317.098 412.262 312.411 427.655 316.316 426.613C320.22 425.571 329.468 417.491 329.596 407.158C329.725 396.825 329.596 396.831 332.065 389.358C333.056 386.379 337.943 378.578 343.501 369.525L345.252 336.802L346.733 308.137Z" fill="#C9E2F4"/>
<path fill-rule="evenodd" clip-rule="evenodd" d="M414.968 287.53C401.613 272.55 378.918 278.114 378.918 278.114C378.918 278.114 362.521 283.59 353.116 289.868C352.657 290.174 352.25 290.548 351.909 290.975C350.966 292.171 348.784 295.025 346.032 299.215C341.385 306.291 337.347 313.727 333.958 321.449C330.414 329.459 327.727 337.803 325.94 346.349C324.373 354.053 323.146 361.119 322.187 367.412C322.187 367.396 327.504 357.251 330.63 350.827C333.755 344.402 346.724 308.136 346.724 308.136L345.24 336.792L343.498 369.518L342.211 393.473C375.261 390.384 379.767 359.11 388.435 331.547C397.104 303.984 418.37 293.682 418.37 293.682C417.378 291.035 416.229 288.932 414.968 287.53Z" fill="white"/>
<path d="M535.735 542.472C535.735 542.472 520.112 542.338 491.6 505.18C463.088 468.023 436.614 432.705 374.466 423.593" stroke="#2E3F8B" stroke-width="19"/>
<path d="M379.629 425.148C381.637 407.795 374.826 392.804 364.416 391.665C354.005 390.526 343.939 403.67 341.931 421.023C339.923 438.376 346.735 453.367 357.145 454.506C367.555 455.645 377.622 442.501 379.629 425.148Z" fill="#FDB714"/>
<path fill-rule="evenodd" clip-rule="evenodd" d="M333.916 426.81C330.26 427.385 324.128 434.148 318.82 441.918L326.4 376.403L359.341 381.456C363.625 381.926 367.214 385.484 369.773 391.092C369.773 391.092 342.25 425.492 333.916 426.81Z" fill="#F7B219"/>
<path fill-rule="evenodd" clip-rule="evenodd" d="M373.423 424.682C370.793 447.413 360.226 464.918 349.81 463.779C349.585 463.754 349.36 463.717 349.138 463.676L316.873 458.726L318.804 441.918C324.112 434.148 330.244 427.385 333.9 426.81C342.249 425.492 369.773 391.11 369.773 391.11C373.426 399.112 374.971 411.313 373.423 424.682Z" fill="#E0A126"/>
<path d="M340.483 419.626C343.113 396.896 336.805 377.546 326.395 376.407C315.985 375.268 305.414 392.771 302.784 415.501C300.155 438.231 306.462 457.581 316.872 458.721C327.282 459.86 337.853 442.357 340.483 419.626Z" fill="#FDB714"/>
<path d="M325.049 404.547C325.364 401.827 324.373 399.485 322.837 399.317C321.3 399.149 319.799 401.218 319.484 403.938C319.169 406.659 320.16 409 321.697 409.169C323.234 409.337 324.735 407.268 325.049 404.547Z" fill="#B97F2B"/>
<path d="M321.013 434.542C321.327 431.821 320.337 429.48 318.8 429.311C317.263 429.143 315.762 431.212 315.447 433.933C315.132 436.653 316.123 438.995 317.66 439.163C319.197 439.331 320.698 437.262 321.013 434.542Z" fill="#B97F2B"/>
<path fill-rule="evenodd" clip-rule="evenodd" d="M357.748 422.122C353.695 428.628 344.873 429.679 344.873 429.679C344.261 426.475 351.239 415.91 351.587 414.887C351.935 413.864 345.861 415.131 344.506 414.299C343.151 413.466 345.565 411.795 351.526 409.567C355.73 408.003 357.832 406.563 362.756 400.439L370.323 407.148C370.323 407.148 361.8 415.616 357.748 422.122Z" fill="#F37878"/>
<path fill-rule="evenodd" clip-rule="evenodd" d="M344.86 429.68C344.86 429.68 353.695 428.628 357.735 422.122C361.774 415.616 370.314 407.148 370.314 407.148C366.207 411.576 359.37 423.089 357.555 425.086C355.456 427.392 345.471 432.884 344.86 429.68Z" fill="#F15859"/>
<path fill-rule="evenodd" clip-rule="evenodd" d="M362.76 400.439C364.82 397.876 367.375 394.493 370.784 389.937C382.342 374.497 392.057 338.231 394.426 315.459C396.795 292.687 410.156 285.524 410.156 285.524C417.491 286.397 427.746 295.453 427.411 330.605C427.077 365.757 375.564 403.546 372.01 405.662C371.383 406.081 370.817 406.581 370.327 407.148L362.76 400.439Z" fill="white"/>
<path fill-rule="evenodd" clip-rule="evenodd" d="M373.732 281.444C370.31 288.241 377.974 288.879 378.019 288.883C373.223 290.303 368.72 285.819 369.711 283.366C370.886 280.468 370.397 272.441 370.397 272.441L374.71 269.312C374.71 269.312 377.163 274.625 373.732 281.444Z" fill="#F15859"/>
<path fill-rule="evenodd" clip-rule="evenodd" d="M387.653 276.578C385.857 272.854 377.775 255.333 377.891 252.097C377.891 252.097 381.354 247.96 378.805 244.837C376.255 241.714 374.282 247.181 374.282 247.181C374.282 247.181 374.192 247.059 374.028 246.868C372.2 244.565 360.831 231.431 352.878 249.797C352.726 250.151 352.575 250.514 352.424 250.889C352.424 250.889 357.67 270.206 361.295 272.585C364.919 274.963 370.397 272.447 370.397 272.447L374.71 269.318C374.71 269.318 377.163 274.619 373.745 281.438C370.327 288.256 377.987 288.873 378.032 288.876C378.998 288.58 379.892 288.098 380.662 287.458C386.243 282.921 389.449 280.314 387.653 276.578Z" fill="#F37878"/>
<path fill-rule="evenodd" clip-rule="evenodd" d="M351.368 562.5L349.932 563.542L316.29 564.966C319.959 562.012 325.737 557.6 329.651 555.816C335.38 553.206 342.526 551.863 342.358 546.509C345.362 546.475 348.754 546.456 351.509 546.443C351.509 546.447 354.146 560.482 351.368 562.5Z" fill="#2D4087"/>
<path fill-rule="evenodd" clip-rule="evenodd" d="M349.933 563.536L351.368 562.494C354.146 560.475 351.51 546.44 351.51 546.437H355.372C355.491 548.377 355.659 550.086 355.884 551.503C356.795 557.264 357.465 560.991 357.889 563.213L349.933 563.536Z" fill="#1F2055"/>
<path fill-rule="evenodd" clip-rule="evenodd" d="M313.834 566.978C314.443 566.471 315.286 565.77 316.29 564.96L349.933 563.536L357.876 563.201C358.243 565.119 358.427 565.911 358.427 565.911L345.941 566.44L314.166 567.785C313.964 567.794 313.779 567.678 313.704 567.496C313.63 567.314 313.682 567.106 313.834 566.978Z" fill="#C9E1F2"/>
<path d="M338.69 551.926L340.956 554.069" stroke="#CAE2F2" stroke-width="2" stroke-linecap="round"/>
<path d="M336.382 553.071L338.448 555.512" stroke="#CAE2F2" stroke-width="2" stroke-linecap="round"/>
<path d="M334.373 553.897L336.305 556.423" stroke="#CAE2F2" stroke-width="2" stroke-linecap="round"/>
<path fill-rule="evenodd" clip-rule="evenodd" d="M417.437 541.737L403.274 544.081C403.274 544.081 401.237 549.995 393.83 553.381C389.157 555.518 385.14 559.195 382.787 561.621C390.032 561.308 413.506 560.284 421.856 559.117C420.758 553.866 417.437 541.737 417.437 541.737Z" fill="#1E204D"/>
<path fill-rule="evenodd" clip-rule="evenodd" d="M422.206 561.182C422.138 560.486 422.024 559.795 421.865 559.114C413.516 560.284 390.041 561.32 382.796 561.617C381.428 563.035 380.639 564.024 380.639 564.024C380.639 564.024 422.303 563.673 422.206 561.182Z" fill="#C9E1F2"/>
<path d="M400.644 548.302L403.37 550.105" stroke="#CAE2F2" stroke-width="2" stroke-linecap="round"/>
<path d="M398.88 550.105L401.764 551.92" stroke="#CAE2F2" stroke-width="2" stroke-linecap="round"/>
<path d="M396.859 551.679L399.379 553.397" stroke="#CAE2F2" stroke-width="2" stroke-linecap="round"/>
<path fill-rule="evenodd" clip-rule="evenodd" d="M353.029 245.936C353.029 245.936 356.805 251.124 363.329 250.429C369.854 249.735 372.834 250.999 372.834 250.999L374.463 253.023L374.299 247.19C374.299 247.19 372.705 241.035 371.012 240.162C369.319 239.289 361.491 235.111 357.188 237.148C352.884 239.186 346.839 247.716 348.854 251.262C350.869 254.807 352.891 258.146 352.891 258.146C352.891 258.146 357.391 248.101 353.029 245.936Z" fill="#2F3E8B"/>
<path d="M442.31 250.328C449.373 250.328 455.098 244.762 455.098 237.896C455.098 231.029 449.373 225.463 442.31 225.463C435.248 225.463 429.522 231.029 429.522 237.896C429.522 244.762 435.248 250.328 442.31 250.328Z" fill="#F7B219"/>
<path fill-rule="evenodd" clip-rule="evenodd" d="M440.032 243.406C439.69 243.407 439.363 243.275 439.121 243.04L434.937 238.972C434.434 238.483 434.434 237.69 434.937 237.201C435.44 236.712 436.255 236.712 436.758 237.201L440.038 240.39L447.509 233.127C447.835 232.81 448.309 232.685 448.754 232.801C449.199 232.917 449.547 233.254 449.667 233.687C449.786 234.119 449.66 234.581 449.334 234.898L440.965 243.05C440.717 243.286 440.38 243.415 440.032 243.406Z" fill="white"/>
<path fill-rule="evenodd" clip-rule="evenodd" d="M95.8403 232.454H125.131C127.172 232.454 128.826 234.062 128.826 236.046V261.271C128.826 261.687 128.568 262.062 128.173 262.221C127.778 262.381 127.324 262.294 127.02 262.001L120.338 255.485C119.751 254.912 118.953 254.59 118.12 254.59H95.8403C93.7657 254.59 92.084 252.955 92.084 250.938V236.099C92.0893 234.086 93.769 232.455 95.8403 232.454Z" fill="#2F3E8B"/>
<path fill-rule="evenodd" clip-rule="evenodd" d="M99.3839 239.026H120.306C121.052 239.029 121.656 239.617 121.658 240.343C121.656 241.068 121.052 241.656 120.306 241.657H99.3839C98.638 241.656 98.0338 241.068 98.032 240.343C98.0337 239.617 98.6374 239.029 99.3839 239.026Z" fill="#1F2055"/>
<path fill-rule="evenodd" clip-rule="evenodd" d="M107.588 246.555H120.286C121.032 246.556 121.637 247.144 121.638 247.869C121.637 248.594 121.032 249.182 120.286 249.183H107.588C106.843 249.182 106.238 248.594 106.237 247.869C106.238 247.144 106.843 246.556 107.588 246.555Z" fill="#1F2055"/>
<path d="M266.745 372.019C277.689 371.913 286.473 363.176 286.364 352.505C286.255 341.833 277.294 333.268 266.349 333.374C255.405 333.48 246.621 342.216 246.73 352.888C246.839 363.56 255.8 372.125 266.745 372.019Z" fill="#2F3E8B"/>
<path fill-rule="evenodd" clip-rule="evenodd" d="M275.354 360.534L257.902 360.712L257.902 358.234C257.895 356.7 258.674 355.263 259.981 354.404L263.306 352.213C261.033 350.799 259.99 348.099 260.743 345.58C261.496 343.061 263.866 341.326 266.564 341.317C269.262 341.308 271.644 343.028 272.414 345.541C273.185 348.055 272.161 350.762 269.898 352.191L273.239 354.347C274.553 355.198 275.345 356.63 275.351 358.165L275.354 360.534Z" fill="white"/>
<path d="M307.538 395.604C307.538 395.604 268.008 409.952 289.883 415.726C311.758 421.499 443.418 375.427 443.418 375.427" stroke="#1F2055" stroke-width="2" stroke-linecap="round" stroke-dasharray="8 8"/>
<path fill-rule="evenodd" clip-rule="evenodd" d="M77.622 296.167L74.3228 299.606L49.1682 289.404L77.622 296.167Z" fill="#1F2055"/>
<path fill-rule="evenodd" clip-rule="evenodd" d="M76.4504 284.811L78.9321 288.456L77.2551 292.027L81.0211 292.649L84.3525 299.756L48.3604 289.17L76.4504 284.811Z" fill="#2F3E8B"/>
<path fill-rule="evenodd" clip-rule="evenodd" d="M77.2553 292.027L78.9322 288.456L59.4395 289.342L77.2553 292.027Z" fill="#1F2055"/>
<path fill-rule="evenodd" clip-rule="evenodd" d="M446.504 375.395L449.807 378.837L474.961 368.635L446.504 375.395Z" fill="#1F2055"/>
<path fill-rule="evenodd" clip-rule="evenodd" d="M447.679 364.042L445.194 367.684L446.874 371.258L443.105 371.881L439.777 378.987L475.769 368.398L447.679 364.042Z" fill="#2F3E8B"/>
<path fill-rule="evenodd" clip-rule="evenodd" d="M446.875 371.258L445.195 367.684L464.691 368.573L446.875 371.258Z" fill="#1F2055"/>
</g>
<defs>
<linearGradient id="paint0_linear_1_1120" x1="581.456" y1="-399" x2="-76.0442" y2="1027.5" gradientUnits="userSpaceOnUse">
<stop stop-color="#03004D"/>
<stop offset="0.971829" stop-color="#3563EB"/>
</linearGradient>
<clipPath id="clip0_1_1120">
<rect width="529.544" height="766" fill="white" transform="translate(0.455811)"/>
</clipPath>
</defs>
</svg>
