<svg width="15" height="15" viewBox="0 0 15 15" fill="none" xmlns="http://www.w3.org/2000/svg">
<g clip-path="url(#clip0_1_1342)">
<path d="M7.5 0.312622C3.35625 0.312622 0 3.61262 0 7.68262C0 10.9395 2.14875 13.7014 5.12813 14.6751C5.50313 14.7445 5.64062 14.5164 5.64062 14.3207C5.64062 14.1457 5.63438 13.682 5.63125 13.0676C3.545 13.512 3.105 12.0789 3.105 12.0789C2.76375 11.2282 2.27062 11.0007 2.27062 11.0007C1.59125 10.5439 2.32312 10.5532 2.32312 10.5532C3.07625 10.6045 3.47187 11.3126 3.47187 11.3126C4.14062 12.4395 5.2275 12.1139 5.65625 11.9257C5.72375 11.4489 5.91688 11.1245 6.13125 10.9401C4.46563 10.7557 2.715 10.122 2.715 7.29825C2.715 6.49387 3.00563 5.83637 3.48688 5.32075C3.4025 5.1345 3.14937 4.38512 3.5525 3.37012C3.5525 3.37012 4.18062 3.17262 5.615 4.12575C6.215 3.962 6.8525 3.88075 7.49 3.877C8.1275 3.88075 8.765 3.962 9.365 4.12575C10.79 3.17262 11.4181 3.37012 11.4181 3.37012C11.8212 4.38512 11.5681 5.1345 11.4931 5.32075C11.9712 5.83637 12.2619 6.49387 12.2619 7.29825C12.2619 10.1295 10.5087 10.7526 8.84 10.9339C9.1025 11.1551 9.34625 11.607 9.34625 12.2976C9.34625 13.2839 9.33687 14.0764 9.33687 14.3157C9.33687 14.5089 9.46813 14.7395 9.8525 14.6657C12.8531 13.6982 15 10.9345 15 7.68262C15 3.61262 11.6419 0.312622 7.5 0.312622Z" fill="#8181A5"/>
</g>
<defs>
<clipPath id="clip0_1_1342">
<rect width="15" height="15" fill="white"/>
</clipPath>
</defs>
</svg>
