<svg width="46" height="32" viewBox="0 0 46 32" fill="none" xmlns="http://www.w3.org/2000/svg">
<rect x="0.5" y="0.5" width="45" height="31" rx="7.5" fill="white" stroke="#ECECF2"/>
<path d="M29.25 13.2635C28.875 13.6548 28.418 13.9891 27.8789 14.2663V14.5108C27.8789 15.163 27.7031 15.807 27.3516 16.4429C27 17.0788 26.502 17.6657 25.8574 18.2038C25.2129 18.7418 24.3809 19.1739 23.3613 19.4999C22.3418 19.826 21.2227 19.9891 20.0039 19.9891C18.457 19.9891 17.0391 19.7038 15.75 19.1331C15.9609 19.1494 16.1836 19.1576 16.418 19.1576C17.707 19.1576 18.8555 18.8804 19.8633 18.326C19.2539 18.326 18.7148 18.1997 18.2461 17.947C17.7773 17.6942 17.4492 17.3722 17.2617 16.9809C17.4258 17.0135 17.6016 17.0298 17.7891 17.0298C18.0469 17.0298 18.293 17.0054 18.5273 16.9565C17.8711 16.8586 17.332 16.6345 16.9102 16.2839C16.4883 15.9334 16.2773 15.5298 16.2773 15.0733V15.0489C16.6758 15.1956 17.0977 15.2771 17.543 15.2934C16.7227 14.9021 16.3125 14.3641 16.3125 13.6793C16.3125 13.3369 16.4414 13.0108 16.6992 12.701C18.1758 13.9728 20.0742 14.6494 22.3945 14.7309C22.3477 14.5842 22.3242 14.4374 22.3242 14.2907C22.3242 13.7527 22.5937 13.2961 23.1328 12.9211C23.6719 12.5461 24.3281 12.3586 25.1016 12.3586C25.8984 12.3586 26.5664 12.5624 27.1055 12.9701C27.7383 12.8885 28.3242 12.7336 28.8633 12.5054C28.6523 12.9619 28.2539 13.3124 27.668 13.557C28.207 13.5081 28.7344 13.4103 29.25 13.2635Z" fill="#8181A5"/>
</svg>
