<svg width="45" height="44" viewBox="0 0 45 44" fill="none" xmlns="http://www.w3.org/2000/svg">
<g clip-path="url(#clip0_1_1314)">
<path d="M43.9099 32.1436C43.8993 32.1066 43.8828 32.071 43.861 32.0378L36.9393 21.9174L43.8447 11.8017C43.8988 11.719 43.9216 11.6243 43.9099 11.5304C43.9099 11.5304 43.9099 11.5304 43.9099 11.4982C43.903 11.4428 43.8825 11.3893 43.8498 11.341C43.817 11.2927 43.7727 11.2507 43.7197 11.2177L43.6817 11.1947C43.6331 11.1669 43.5801 11.1452 43.5241 11.1303C43.4845 11.1258 43.4443 11.1258 43.4046 11.1303H29.6048L22.7048 1.01457C22.6879 0.992635 22.6678 0.972555 22.6451 0.954795C22.5951 0.902641 22.5322 0.86038 22.4609 0.830988C22.3896 0.801597 22.3115 0.78579 22.2322 0.784668C22.1538 0.786453 22.0767 0.802575 22.0064 0.831943C21.9361 0.86131 21.8741 0.903225 21.8247 0.954795C21.8019 0.972555 21.7819 0.992635 21.7649 1.01457L14.865 11.1303H1.04341C0.932044 11.1319 0.823932 11.1624 0.733727 11.2177H0.706569C0.652224 11.2499 0.607568 11.2924 0.576182 11.3419C0.541789 11.3895 0.519583 11.4428 0.510988 11.4982C0.513987 11.5088 0.513987 11.5198 0.510988 11.5304C0.500919 11.6248 0.525591 11.7196 0.58162 11.8017L7.48155 21.9174L0.58162 32.0332C0.525591 32.1153 0.500919 32.2101 0.510988 32.3045C0.51353 32.3136 0.51353 32.323 0.510988 32.3321C0.519469 32.389 0.541657 32.4437 0.576182 32.493C0.623587 32.5625 0.691651 32.6203 0.773619 32.6606C0.855587 32.7009 0.948599 32.7224 1.04341 32.7229H14.8487L21.7486 42.8387C21.7687 42.8695 21.7944 42.8974 21.8247 42.9215V42.9444C21.8646 42.9731 21.9084 42.9978 21.9551 43.018H22.0149C22.0646 43.0364 22.1182 43.0458 22.1724 43.0456H22.2159C22.2701 43.0458 22.3237 43.0364 22.3734 43.018H22.4332C22.4806 42.999 22.5245 42.9742 22.5636 42.9444V42.9215L22.6396 42.8387L29.5396 32.7229H43.3394C43.4352 32.7232 43.5293 32.7021 43.6123 32.6618C43.6953 32.6214 43.7642 32.5632 43.8121 32.493C43.8425 32.4426 43.8627 32.3882 43.8719 32.3321C43.8719 32.3321 43.8719 32.3321 43.8719 32.3045C43.8983 32.2539 43.9113 32.1989 43.9099 32.1436V32.1436ZM41.8997 31.0032L33.5437 26.9201L36.3308 22.837L41.8997 31.0032ZM22.7592 40.8891V27.5547H31.8595L22.7592 40.8891ZM12.5723 27.5547H21.6726V40.8891L12.5723 27.5547ZM21.6726 2.95036V11.4522L11.6323 26.1661L8.73114 21.9174L21.6726 2.95036ZM35.7006 21.9174L32.8048 26.1707L22.7592 11.4568V2.94576L35.7006 21.9174ZM13.6589 26.6305L22.2159 22.4508L30.7729 26.6305H13.6589ZM22.7592 13.296L31.3162 25.8442L22.7592 21.6599V13.296ZM21.6726 21.6599L13.1156 25.8442L21.6726 13.296V21.6599ZM33.5437 16.9193L41.9051 12.8362L36.3308 20.9978L33.5437 16.9193ZM41.3564 12.0408L33.0004 16.1239L30.2133 12.0408H41.3564ZM11.4313 16.1239L3.07535 12.0408H14.2185L11.4313 16.1239ZM2.53205 12.8362L10.888 16.9239L8.10089 20.9978L2.53205 12.8362ZM10.888 26.9294L2.53205 31.017L8.10089 22.837L10.888 26.9294ZM3.06992 31.8033L11.4313 27.7156L14.2185 31.8033H3.06992ZM33.0004 27.7156L41.3618 31.8033H30.2133L33.0004 27.7156Z" fill="#03004D"/>
<path d="M43.9109 32.1436C43.3676 31.2792 42.7482 30.4423 42.1723 29.5871L40.4012 27.0489L36.8262 21.991L36.7828 21.9313L36.8262 21.8623L40.3197 16.5469L42.1126 13.9122L43.009 12.5972L43.46 11.9396L43.5686 11.7741L43.6229 11.696C43.625 11.6822 43.625 11.6683 43.6229 11.6546C43.6312 11.6228 43.6312 11.5898 43.6229 11.558C43.6096 11.528 43.5987 11.4973 43.5903 11.4661C43.5623 11.4453 43.5368 11.4222 43.5143 11.3971C43.4978 11.3776 43.4796 11.3592 43.46 11.3419H43.4056H29.4319L29.3504 11.2269L25.7592 5.96214L23.9663 3.32745L23.0698 2.01239L22.6189 1.35487C22.4505 1.09738 22.369 0.991623 22.2169 0.996221C22.0648 1.00082 21.9832 1.09738 21.8148 1.35487L21.3693 2.01239L20.4674 3.32745L18.6746 5.96214L15.0833 11.2269L15.0018 11.3419H0.990102C0.953738 11.3519 0.919042 11.3658 0.886874 11.3833C0.864381 11.4084 0.838885 11.4315 0.810804 11.4522C0.802441 11.4835 0.791551 11.5142 0.778207 11.5442C0.769962 11.576 0.769962 11.609 0.778207 11.6408C0.776162 11.6545 0.776162 11.6684 0.778207 11.6822L0.832524 11.7603L0.946629 11.9259L1.39214 12.5834L2.28857 13.8984L4.08693 16.5331L7.67814 21.7979L7.75962 21.9129L7.67814 22.0278L4.08693 27.2926L2.28857 29.9273L1.39214 31.2424L0.941191 31.8999L0.832524 32.0654L0.778207 32.1482C0.77528 32.1603 0.77528 32.1729 0.778207 32.185C0.769962 32.2168 0.769962 32.2497 0.778207 32.2815C0.791551 32.3115 0.802441 32.3423 0.810804 32.3735C0.8295 32.4009 0.854543 32.4248 0.88442 32.4437C0.914296 32.4627 0.948393 32.4763 0.984664 32.4839H15.0018L15.0833 32.5988L18.6746 37.8636L20.4674 40.4937L21.3693 41.8134L21.8148 42.4709L21.9289 42.6364L21.9832 42.7146C21.9987 42.7246 22.0116 42.7371 22.0213 42.7514C22.048 42.7722 22.0771 42.7907 22.1082 42.8065C22.1416 42.8218 22.1789 42.8298 22.2169 42.8298C22.2548 42.8298 22.2922 42.8218 22.3255 42.8065C22.3255 42.7836 22.3907 42.7744 22.4179 42.7514L22.4505 42.7146L22.5048 42.6318L22.6189 42.4709L23.0698 41.8134L23.9663 40.4937L25.7592 37.8636L29.4428 32.6448L29.4971 32.5758H29.5895L36.9838 32.6678C38.2171 32.6908 39.4504 32.6954 40.6837 32.7H42.5363C42.8406 32.7 43.1503 32.7 43.46 32.7C43.5358 32.6922 43.6089 32.671 43.6745 32.6378C43.74 32.6045 43.7965 32.5599 43.8403 32.5069C43.8713 32.4473 43.8967 32.3858 43.9163 32.3229C43.9239 32.2632 43.9221 32.2029 43.9109 32.1436V32.1436ZM43.9109 32.1436C43.9189 32.2078 43.9189 32.2725 43.9109 32.3367C43.8919 32.4004 43.8645 32.4621 43.8294 32.5206C43.7867 32.5754 43.7307 32.6217 43.6651 32.6566C43.5995 32.6915 43.5258 32.7141 43.4491 32.723C43.1394 32.723 42.8297 32.723 42.5255 32.723H40.6728C39.4413 32.723 38.208 32.7322 36.9729 32.7506L29.5786 32.8425L29.7199 32.7735L26.221 38.0843L24.4281 40.7144L23.5262 42.0341L23.0807 42.6916L22.9666 42.8571L22.9069 42.9399L22.8145 43.0686C22.7341 43.1369 22.6404 43.1929 22.5374 43.2342C22.436 43.2764 22.3245 43.2983 22.2115 43.2983C22.0984 43.2983 21.9869 43.2764 21.8854 43.2342C21.7845 43.1924 21.6926 43.1364 21.6138 43.0686L21.5106 42.9583L21.4508 42.8709L21.3421 42.71L20.8912 42.0525L19.9948 40.7328L18.1964 38.1027L14.6052 32.8379L14.8443 32.9529H1.03898C0.982981 32.9576 0.926559 32.9576 0.870559 32.9529C0.75734 32.9337 0.650303 32.8942 0.556595 32.8371C0.462888 32.78 0.38468 32.7066 0.327258 32.6218C0.219119 32.4547 0.191843 32.2585 0.251187 32.0746C0.266832 32.0275 0.290635 31.9825 0.321819 31.9413L0.376169 31.8539L0.490241 31.6884L0.935752 31.0309L1.83765 29.7158L3.63054 27.0811L7.22719 21.8163V22.0462L3.63054 16.7814L1.83765 14.1467L0.941191 12.8317L0.490241 12.1741L0.376169 12.0086L0.321819 11.9259C0.2928 11.8836 0.269123 11.8389 0.251187 11.7925C0.195201 11.6074 0.220293 11.4114 0.321819 11.2408C0.446218 11.0766 0.640948 10.9595 0.865121 10.9143C0.922799 10.9075 0.981302 10.9075 1.03898 10.9143H14.8497L14.6107 11.0292L18.2019 5.76443L20.0002 3.12974L20.8966 1.81468L21.3476 1.15716L21.4563 0.991619L21.516 0.908857C21.5477 0.870329 21.5822 0.83348 21.6192 0.798507C21.6937 0.726306 21.7855 0.668429 21.8886 0.628774C21.9917 0.589118 22.1037 0.568604 22.2169 0.568604C22.3299 0.56976 22.4414 0.590794 22.5442 0.630373C22.6471 0.669952 22.7392 0.72721 22.8145 0.798507C22.8515 0.83348 22.886 0.870329 22.9177 0.908857L22.9775 0.991619L23.0916 1.15716L23.5371 1.81468L24.4335 3.12974L26.2319 5.76443L29.8231 11.0292L29.5895 10.9143H43.3948H43.5632C43.6716 10.9399 43.7743 10.9803 43.8674 11.0338C43.953 11.0948 44.0296 11.1643 44.0956 11.2408C44.2023 11.4101 44.2276 11.6077 44.1662 11.7925C44.1506 11.8397 44.1268 11.8846 44.0956 11.9259L44.0413 12.0086L43.9272 12.1741L43.4817 12.8317L42.5852 14.1513L40.7869 16.7814L37.0925 21.9956V21.8669L40.4881 27.0213L42.2049 29.5871C42.77 30.4331 43.373 31.2746 43.9109 32.1436Z" fill="#03004D"/>
<path d="M41.9001 31.0035C41.2644 30.7138 40.5961 30.4195 39.9116 30.1344C39.5638 29.9873 39.227 29.8723 38.8576 29.6746L37.771 29.1688C36.3041 28.4975 34.848 27.7894 33.4246 27.0951L33.1909 26.9802L33.3267 26.7824L36.1139 22.6993L36.3475 22.3545L36.5811 22.6993C37.5319 24.0788 38.4827 25.5088 39.4009 26.9296L40.0854 27.9917L40.4331 28.5251C40.5418 28.6998 40.6287 28.8653 40.7265 29.0355C41.0959 29.7344 41.5034 30.3781 41.9001 31.0035ZM41.9001 31.0035C41.3568 30.2678 40.8515 29.5643 40.3082 28.87L39.9061 28.3596L39.553 27.8676L38.8467 26.8928C37.9068 25.5915 37.0049 24.2811 36.0976 22.9522H36.5648L33.7831 27.0353L33.6799 26.7227C35.0382 27.3848 36.3638 28.0469 37.6895 28.7366L38.6837 29.2516C39.0097 29.4171 39.3628 29.6378 39.716 29.831C40.4223 30.231 41.1449 30.6126 41.9001 31.0035Z" fill="#03004D"/>
<path d="M22.7594 40.889C22.7594 39.8452 22.7051 38.7785 22.6508 37.7025C22.6508 37.16 22.5801 36.6358 22.5747 36.061L22.5421 34.3597C22.4986 32.0883 22.4878 29.8076 22.4878 27.55V27.3201H32.3324L32.0988 27.6649C30.5612 29.918 28.9965 32.1848 27.4155 34.4333L26.2257 36.1116L25.6335 36.953L25.0413 37.7531C24.2535 38.8015 23.4929 39.8498 22.7594 40.889ZM22.7594 40.889C23.5418 39.7027 24.297 38.5348 25.0304 37.3577L25.5737 36.4886L26.117 35.661L27.2036 34.0057C28.6543 31.8078 30.1266 29.6283 31.6207 27.435L31.8543 27.7799H22.7594L23.0311 27.55C23.0311 29.7387 23.0311 31.9044 22.9767 34.0792L22.9441 35.7116C22.9441 36.2495 22.8898 36.8381 22.8681 37.4083C22.8137 38.5578 22.7812 39.7119 22.7594 40.889Z" fill="#03004D"/>
<path d="M12.5728 27.55C14.0071 27.5087 15.4903 27.4535 17.0061 27.3753C17.3864 27.3753 17.7667 27.3339 18.1579 27.3293H21.961V41.7627L21.4557 41.0132L16.8377 34.2219L15.7021 32.5206L15.1262 31.6699C14.9415 31.3849 14.784 31.109 14.5829 30.8285L12.5728 27.55ZM12.5728 27.55C13.4094 28.6996 14.2352 29.8491 15.0719 30.9388C15.2729 31.2147 15.4957 31.4952 15.6859 31.7665L16.2292 32.5849L17.3701 34.2219L21.8795 40.7741L21.3742 40.8891V27.5546L21.6459 27.7846H19.4346H18.348C17.9786 27.7846 17.6037 27.7569 17.2234 27.7386C15.7203 27.6527 14.1701 27.5899 12.5728 27.55Z" fill="#03004D"/>
<path d="M21.6727 2.9458C21.6727 4.30223 21.7433 5.68166 21.8194 7.08407L21.9335 9.24057C21.9335 9.96707 21.9335 10.7028 21.9335 11.4293V11.489L21.8955 11.5442L11.8553 26.2581L11.6216 26.6029L11.3826 26.2581L8.48678 22.0048L8.40527 21.8899L8.48678 21.7749C10.66 18.5563 12.8658 15.3744 15.0879 12.1925L16.7558 9.80613L17.5871 8.61524L18.4183 7.46572C19.5538 5.97594 20.6404 4.44477 21.6727 2.9458ZM21.6727 2.9458C20.5861 4.60111 19.4995 6.23802 18.4455 7.87953L17.6577 9.10264L16.8754 10.2843L15.3052 12.6432C13.2135 15.7837 11.1001 18.9011 8.96489 22.0324V21.8025L11.8661 26.0558H11.4043L21.4499 11.3419L21.4119 11.4569C21.4119 10.7671 21.4119 10.0774 21.4119 9.39692L21.5206 7.30018C21.6021 5.87478 21.6564 4.44477 21.6727 2.9458Z" fill="#03004D"/>
<path d="M35.7008 21.9173L32.9843 26.2579L32.8159 26.5292L32.6203 26.2579C32.1803 25.6555 31.7239 25.0624 31.3056 24.4462L30.056 22.607L27.5459 18.9285L22.5258 11.5716L22.4878 11.521V2.09497L22.9931 2.83986L29.5127 12.3809L31.1426 14.7673L31.9575 15.9582C32.2292 16.3582 32.4682 16.7582 32.7236 17.1583L35.7008 21.9173ZM35.7008 21.9173L32.24 17.1996C31.9575 16.8088 31.6587 16.418 31.3871 16.0271L30.583 14.8454L28.9531 12.4912L22.5258 3.06516L23.0311 2.95021V11.4521L22.9931 11.3371L28.0186 18.694L30.5286 22.3725L31.7891 24.2117C32.2074 24.8233 32.5877 25.4578 32.9843 26.0785H32.6203L35.7008 21.9173Z" fill="#03004D"/>
<path d="M13.6592 26.6304C14.3166 26.2948 14.974 25.9453 15.6476 25.582L17.6796 24.4509C19.1465 23.7014 20.6134 22.9611 22.0804 22.2484L22.2162 22.1841L22.352 22.2484L30.909 26.4281L31.7891 26.8603H30.7732C27.8774 26.8603 24.9598 26.8603 22.0804 26.8097C20.6297 26.8097 19.1574 26.7775 17.7339 26.7408C16.3105 26.704 14.9903 26.6534 13.6592 26.6304ZM13.6592 26.6304C15.1859 26.6304 16.669 26.5752 18.1523 26.5155C19.6355 26.4557 20.9774 26.4695 22.3846 26.4465C25.1772 26.4097 27.9643 26.4005 30.7732 26.4005L30.6373 26.8281L22.0804 22.6485H22.352C20.9666 23.329 19.5812 23.9865 18.1957 24.6303L15.9519 25.5958C15.2076 25.9223 14.4307 26.2672 13.6592 26.6304Z" fill="#03004D"/>
<path d="M22.7594 13.2869C23.444 14.2479 24.1612 15.2319 24.9326 16.2067C25.7041 17.1815 26.4267 18.2988 27.171 19.3471C28.6651 21.4622 30.132 23.5958 31.5826 25.7201L32.0879 26.4604L31.1806 26.0557L22.6236 21.8761L22.4878 21.8071V21.6738C22.4878 20.2438 22.4878 18.8 22.5421 17.3516L22.6834 15.2916C22.7214 14.5973 22.7431 13.9398 22.7594 13.2869ZM22.7594 13.2869C22.7594 14.0318 22.8029 14.7675 22.8409 15.4894L22.9822 17.6137C23.0148 18.9517 23.0365 20.2943 23.0311 21.6508L22.8953 21.4531L31.4523 25.6327L31.0828 25.95C29.6756 23.89 28.2957 21.8393 26.9374 19.7748C26.2529 18.731 25.5737 17.7148 24.8946 16.6435C24.2155 15.5721 23.4983 14.4226 22.7594 13.2869Z" fill="#03004D"/>
<path d="M21.6727 21.6508L19.6571 22.7774C18.9725 23.1498 18.3042 23.5452 17.5925 23.9085L13.2461 26.0328L12.366 26.4604L12.8767 25.7201L21.4391 13.1812L21.9444 12.4363V17.5401C21.9444 18.2436 21.8574 18.9196 21.8194 19.6185L21.6727 21.6508ZM21.6727 21.6508L21.5315 19.5127C21.4934 18.8046 21.4282 18.1011 21.4065 17.4114V13.2731L21.9118 13.3881L13.3548 25.9362L12.9853 25.619L17.2013 23.5636C17.9185 23.2326 18.6737 22.9291 19.418 22.6026L21.6727 21.6508Z" fill="#03004D"/>
<path d="M33.5439 16.91L35.4509 15.8157C35.7769 15.6317 36.0812 15.4295 36.4452 15.2593L37.5318 14.7305L41.7913 12.6246L42.6714 12.1924L42.1607 12.9419L36.5864 21.1127L36.3528 21.4575L36.1192 21.1127L35.3966 20.0505L35.038 19.5217C34.9185 19.3424 34.8316 19.1585 34.7283 18.9792L33.5439 16.91ZM33.5439 16.91C34.0872 17.6135 34.6305 18.2894 35.1739 18.9286C35.3042 19.0895 35.4455 19.2504 35.5596 19.3884L35.8965 19.8758L36.5701 20.8598H36.1029L41.6718 12.7212L42.0412 13.0338L37.9393 15.0202L36.9396 15.503C36.6082 15.6685 36.2116 15.8111 35.853 15.9628L33.5439 16.91Z" fill="#03004D"/>
<path d="M41.3567 12.0317C40.7428 12.3535 40.1071 12.6984 39.4769 13.057C39.1509 13.2363 38.8575 13.4249 38.4935 13.6088L37.4069 14.1606C35.9889 14.8963 34.5437 15.6182 33.1148 16.3171L32.8812 16.432L32.7454 16.2297L29.9583 12.1466L29.7246 11.8018H30.1919C32.0934 11.8018 33.995 11.8017 35.9291 11.8477L37.358 11.8799H38.0752C38.3142 11.8799 38.5261 11.8799 38.7489 11.9167C39.6562 11.9811 40.52 12.0087 41.3567 12.0317ZM41.3567 12.0317C40.3407 12.0317 39.3574 12.0822 38.374 12.1328L37.6514 12.1696H36.9777L35.6194 12.2018C33.8211 12.2386 32.0282 12.2478 30.1864 12.2478L30.4201 11.9029L33.2072 15.986L32.8377 15.9032C34.196 15.2411 35.5542 14.5974 36.9016 13.972L37.9285 13.5122C38.2599 13.3559 38.6619 13.2042 39.0151 13.0524C39.8246 12.7214 40.5798 12.3903 41.3567 12.0317Z" fill="#03004D"/>
<path d="M11.4315 16.1147L9.35612 15.2686C9.00297 15.1169 8.64983 14.9973 8.26951 14.8088L7.18291 14.2938L2.90714 12.2201L2.01611 11.7925H14.6587L14.4197 12.1373L13.6971 13.1949L13.3331 13.7237C13.2081 13.8984 13.0669 14.0547 12.9365 14.2203L11.4315 16.1147ZM11.4315 16.1147C11.8716 15.3606 12.2899 14.6341 12.6866 13.9168C12.7844 13.7421 12.8767 13.5582 12.9854 13.3926L13.3168 12.9006L13.9851 11.9166L14.2187 12.2615H3.07556L3.21138 11.8339L7.28614 13.8478L8.30755 14.349C8.6444 14.5099 8.98125 14.7306 9.32896 14.9238L11.4315 16.1147Z" fill="#03004D"/>
<path d="M2.53223 12.8269C3.16789 13.1166 3.83617 13.4109 4.52073 13.6959C4.86844 13.8431 5.21072 13.9626 5.57473 14.1558L6.66134 14.6615C8.12825 15.3329 9.5843 16.041 11.0077 16.7307L11.2468 16.8456L11.111 17.0479L8.32384 21.131L8.08478 21.4759L7.85117 21.131C6.90039 19.7516 5.94961 18.3216 5.03143 16.9008L4.34143 15.8203L3.99371 15.2869C3.88505 15.1122 3.79813 14.9466 3.70034 14.7765C3.33089 14.1006 2.92884 13.4522 2.53223 12.8269ZM2.53223 12.8269C3.07553 13.5626 3.58079 14.2707 4.1241 14.965L4.52617 15.4754L4.87929 15.9628L5.58558 16.9422C6.52549 18.2434 7.4328 19.5493 8.34012 20.8827H7.86745L10.6546 16.7997L10.7524 17.1123C9.39412 16.4502 8.06847 15.7881 6.74281 15.0984L5.754 14.5834C5.42259 14.4178 5.06945 14.1926 4.71631 13.9994C4.01002 13.604 3.28198 13.2177 2.53223 12.8269Z" fill="#03004D"/>
<path d="M10.8882 26.9201L8.98664 28.019C8.65523 28.203 8.35097 28.4007 7.99239 28.5754L6.90579 29.1042L2.64633 31.2055L1.76074 31.6423L2.27145 30.8928L7.84572 22.7221L8.07934 22.3772L8.31839 22.7221L9.03555 23.7842L9.39412 24.313C9.51364 24.4923 9.60057 24.6762 9.7038 24.8556L10.8882 26.9201ZM10.8882 26.9201C10.3449 26.2212 9.80159 25.5407 9.25829 24.9061C9.13333 24.7406 8.98666 24.5843 8.87257 24.4463L8.53569 23.9589L7.862 22.9749H8.33467L2.76584 31.1135L2.3964 30.7963L6.51463 28.8145L7.54147 28.3225C7.87289 28.1524 8.2695 28.0144 8.62808 27.8627L10.8882 26.9201Z" fill="#03004D"/>
<path d="M3.07031 31.8034C3.68968 31.4816 4.32536 31.1367 4.95558 30.7781C5.28157 30.5988 5.56951 30.4056 5.93352 30.2263L7.02012 29.6745C8.44357 28.9342 9.88877 28.2169 11.3177 27.518L11.5513 27.4031L11.6871 27.6008L14.4742 31.6885L14.7133 32.0333H14.2406C12.339 32.0333 10.4375 32.0334 8.50332 31.9874L7.06903 31.9552H6.35187C6.11825 31.9552 5.90634 31.9552 5.68359 31.9184C4.78171 31.854 3.91243 31.8264 3.07031 31.8034ZM3.07031 31.8034C4.09172 31.8034 5.07512 31.7529 6.05306 31.7023L6.77563 31.6655H7.45476L8.81301 31.6333C10.6113 31.5965 12.4042 31.5873 14.2189 31.5873L13.9852 31.9322L11.1981 27.8445L11.5676 27.9319C10.2093 28.594 8.85106 29.2377 7.50367 29.8631L6.47682 30.3229C6.14541 30.4792 5.73793 30.6309 5.39022 30.7827C4.60787 31.1137 3.84723 31.4448 3.07031 31.8034Z" fill="#03004D"/>
<path d="M33.0005 27.7158L35.0759 28.5665C35.4291 28.7136 35.7877 28.8378 36.1625 29.0263L37.2491 29.5413L41.5304 31.615L42.3725 32.0334H29.7407L29.9798 31.6886L30.7078 30.631L31.0664 30.1022C31.1913 29.9275 31.338 29.7712 31.4684 29.6056L33.0005 27.7158ZM33.0005 27.7158C32.5605 28.4745 32.1421 29.201 31.7509 29.9183C31.6477 30.093 31.5554 30.2769 31.4521 30.4425L31.1153 30.9345L30.447 31.9185L30.2134 31.5736H41.3619L41.2261 32.0012L37.1459 29.9873L36.13 29.4861C35.7931 29.3252 35.4508 29.1045 35.1085 28.9113L33.0005 27.7158Z" fill="#03004D"/>
</g>
<defs>
<clipPath id="clip0_1_1314">
<rect width="43.9694" height="42.7621" fill="white" transform="translate(0.234131 0.536377)"/>
</clipPath>
</defs>
</svg>
